FILE "Switch (1993)(Sega)(JP).img" BINARY
  TRACK 01 MODE1/2352
    INDEX 01 00:00:00
  TRACK 02 AUDIO
    PREGAP 00:02:00
    INDEX 01 23:59:19
  TRACK 03 AUDIO
    INDEX 00 25:32:08
    INDEX 01 25:34:07
  TRACK 04 AUDIO
    INDEX 00 27:17:15
    INDEX 01 27:19:14
  TRACK 05 AUDIO
    INDEX 00 27:51:32
    INDEX 01 27:53:31
  TRACK 06 AUDIO
    INDEX 00 28:26:66
    INDEX 01 28:28:65
  TRACK 07 AUDIO
    INDEX 00 29:03:60
    INDEX 01 29:05:59
  TRACK 08 AUDIO
    INDEX 00 29:34:46
    INDEX 01 29:36:45
  TRACK 09 AUDIO
    INDEX 00 30:09:65
    INDEX 01 30:11:64
  TRACK 10 AUDIO
    INDEX 00 30:43:66
    INDEX 01 30:45:65
  TRACK 11 AUDIO
    INDEX 00 31:12:58
    INDEX 01 31:14:57
  TRACK 12 AUDIO
    INDEX 00 31:44:47
    INDEX 01 31:46:46
  TRACK 13 AUDIO
    INDEX 00 32:12:45
    INDEX 01 32:14:44
  TRACK 14 AUDIO
    INDEX 00 32:31:25
    INDEX 01 32:33:24
  TRACK 15 AUDIO
    INDEX 00 32:58:31
    INDEX 01 33:00:30
  TRACK 16 AUDIO
    INDEX 00 33:33:41
    INDEX 01 33:35:40
  TRACK 17 AUDIO
    INDEX 00 33:58:57
    INDEX 01 34:00:56
  TRACK 18 AUDIO
    INDEX 00 34:34:72
    INDEX 01 34:36:71
  TRACK 19 AUDIO
    INDEX 00 35:08:55
    INDEX 01 35:10:54
  TRACK 20 AUDIO
    INDEX 00 35:42:49
    INDEX 01 35:44:48
  TRACK 21 AUDIO
    INDEX 00 36:20:56
    INDEX 01 36:22:55
  TRACK 22 AUDIO
    INDEX 00 36:59:51
    INDEX 01 37:01:50
  TRACK 23 AUDIO
    INDEX 00 37:36:36
    INDEX 01 37:38:35
  TRACK 24 AUDIO
    INDEX 00 38:13:55
    INDEX 01 38:15:54
  TRACK 25 AUDIO
    INDEX 00 38:51:24
    INDEX 01 38:53:23
  TRACK 26 AUDIO
    INDEX 00 39:21:72
    INDEX 01 39:23:71
  TRACK 27 AUDIO
    INDEX 00 40:01:56
    INDEX 01 40:03:55
  TRACK 28 AUDIO
    INDEX 00 40:41:65
    INDEX 01 40:43:64
  TRACK 29 AUDIO
    INDEX 00 41:17:66
    INDEX 01 41:19:65
  TRACK 30 AUDIO
    INDEX 00 41:55:73
    INDEX 01 41:57:72
  TRACK 31 AUDIO
    INDEX 00 42:32:24
    INDEX 01 42:34:23
  TRACK 32 AUDIO
    INDEX 00 43:05:30
    INDEX 01 43:07:29
  TRACK 33 AUDIO
    INDEX 00 43:44:26
    INDEX 01 43:46:25
  TRACK 34 AUDIO
    INDEX 00 44:18:27
    INDEX 01 44:20:26
  TRACK 35 AUDIO
    INDEX 00 44:50:37
    INDEX 01 44:52:36
  TRACK 36 AUDIO
    INDEX 00 45:26:22
    INDEX 01 45:28:21
  TRACK 37 AUDIO
    INDEX 00 46:04:23
    INDEX 01 46:06:22
  TRACK 38 AUDIO
    INDEX 00 46:38:24
    INDEX 01 46:40:23
  TRACK 39 AUDIO
    INDEX 00 47:10:27
    INDEX 01 47:12:26
  TRACK 40 AUDIO
    INDEX 00 47:52:30
    INDEX 01 47:54:29
  TRACK 41 AUDIO
    INDEX 00 48:30:41
    INDEX 01 48:32:40
  TRACK 42 AUDIO
    INDEX 00 48:48:45
    INDEX 01 48:50:44
  TRACK 43 AUDIO
    INDEX 00 49:24:13
    INDEX 01 49:26:12
  TRACK 44 AUDIO
    INDEX 00 49:59:51
    INDEX 01 50:01:50
  TRACK 45 AUDIO
    INDEX 00 51:01:37
    INDEX 01 51:03:36
  TRACK 46 AUDIO
    INDEX 00 54:18:73
    INDEX 01 54:20:72
